<svg width="1200" height="720" viewBox="0 0 1200 720" fill="none" xmlns="http://www.w3.org/2000/svg">
  <rect width="1200" height="720" fill="#0B1324"/>
  <circle cx="192" cy="162" r="188" fill="#10203A"/>
  <circle cx="1020" cy="582" r="228" fill="#101A2D"/>
  <path d="M0 548L233 459L449 533L650 442L870 516L1200 390V720H0V548Z" fill="#0E1930"/>
  <path d="M210 443L386 370L556 431L736 353L929 424L1068 365V510L929 569L736 498L556 576L386 515L210 588V443Z" fill="#203654"/>
  <path d="M210 443L386 515L556 431L736 498L929 424L1068 365" stroke="#3B5F8E" stroke-width="2"/>
  <path d="M210 588L386 515L556 576L736 498L929 569L1068 510" stroke="#3B5F8E" stroke-width="2"/>
  <path d="M386 370V515" stroke="#3B5F8E" stroke-width="2"/>
  <path d="M556 431V576" stroke="#3B5F8E" stroke-width="2"/>
  <path d="M736 353V498" stroke="#3B5F8E" stroke-width="2"/>
  <path d="M929 424V569" stroke="#3B5F8E" stroke-width="2"/>
  <path d="M258 451L335 419L413 451L335 483L258 451Z" fill="#78E0B8"/>
  <path d="M335 483V547L258 515V451L335 483Z" fill="#4EB085"/>
  <path d="M335 483V547L413 515V451L335 483Z" fill="#5CC899"/>
  <path d="M467 484L545 452L623 484L545 516L467 484Z" fill="#F2F5FA"/>
  <path d="M545 516V593L467 561V484L545 516Z" fill="#D8E3F0"/>
  <path d="M545 516V593L623 561V484L545 516Z" fill="#E6EEF7"/>
  <path d="M705 409L793 373L881 409L793 445L705 409Z" fill="#A1B6D3"/>
  <path d="M793 445V569L705 533V409L793 445Z" fill="#6983A9"/>
  <path d="M793 445V569L881 533V409L793 445Z" fill="#86A0C6"/>
  <path d="M796 329L835 313L874 329L835 345L796 329Z" fill="#F6F9FD"/>
  <path d="M835 345V394L796 378V329L835 345Z" fill="#DCE6F2"/>
  <path d="M835 345V394L874 378V329L835 345Z" fill="#EEF4FB"/>
  <rect x="784" y="280" width="18" height="58" fill="#E7F2FC"/>
  <rect x="736" y="600" width="112" height="12" rx="6" fill="#9FD9FF"/>
  <rect x="528" y="402" width="29" height="76" fill="#C1D0E2"/>
  <rect x="563" y="388" width="29" height="90" fill="#D4E0EE"/>
  <rect x="598" y="374" width="29" height="104" fill="#E7EEF7"/>
  <path d="M297 370L337 351L378 370L337 389L297 370Z" fill="#9FE7C9"/>
  <path d="M337 389V422L297 403V370L337 389Z" fill="#6FBD99"/>
  <path d="M337 389V422L378 403V370L337 389Z" fill="#7FD7AE"/>
  <rect x="0" y="673" width="1200" height="47" fill="#0E182B"/>
</svg>
