<svg width="1200" height="720" viewBox="0 0 1200 720" fill="none" xmlns="http://www.w3.org/2000/svg">
  <rect width="1200" height="720" fill="#07101D"/>
  <circle cx="160" cy="122" r="180" fill="#0F223B"/>
  <circle cx="1010" cy="610" r="210" fill="#101E32"/>
  <path d="M0 620C121 584.667 221 567 300 567C419.667 567 552 610.333 697 697H0V620Z" fill="#0A1730"/>
  <path d="M1200 113C1094.67 129 1004 171.667 928 241C870.667 293 828.667 344.333 802 395L1200 395V113Z" fill="#0C1930"/>
  <g opacity="0.95">
    <rect x="167" y="170" width="84" height="84" rx="18" fill="#2AE0FF"/>
    <rect x="255" y="170" width="84" height="84" rx="18" fill="#2AE0FF"/>
    <rect x="343" y="170" width="84" height="84" rx="18" fill="#2AE0FF"/>
    <rect x="431" y="170" width="84" height="84" rx="18" fill="#2AE0FF"/>
    <rect x="519" y="170" width="84" height="84" rx="18" fill="#2AE0FF"/>
    <rect x="607" y="170" width="84" height="84" rx="18" fill="#2AE0FF"/>
    <circle cx="212" cy="212" r="15" fill="#07101D"/>
    <circle cx="300" cy="212" r="15" fill="#07101D"/>
    <circle cx="388" cy="212" r="15" fill="#07101D"/>
    <circle cx="476" cy="212" r="15" fill="#07101D"/>
    <circle cx="564" cy="212" r="15" fill="#07101D"/>
    <circle cx="652" cy="212" r="15" fill="#07101D"/>
  </g>
  <g opacity="0.95">
    <rect x="302" y="320" width="72" height="72" rx="16" fill="#8D53FF"/>
    <rect x="377" y="320" width="72" height="72" rx="16" fill="#A164FF"/>
    <rect x="452" y="320" width="72" height="72" rx="16" fill="#B778FF"/>
    <rect x="527" y="320" width="72" height="72" rx="16" fill="#C88BFF"/>
    <circle cx="339" cy="356" r="13" fill="#07101D"/>
    <circle cx="414" cy="356" r="13" fill="#07101D"/>
    <circle cx="489" cy="356" r="13" fill="#07101D"/>
    <circle cx="564" cy="356" r="13" fill="#07101D"/>
  </g>
  <path d="M880 522L925 555V608H835V555L880 522Z" fill="#F6FCFF"/>
  <path d="M868 463L880 430L892 463H868Z" fill="#2AE0FF"/>
  <path d="M869 475H891L899 507H861L869 475Z" fill="#B8F5FF"/>
  <rect x="873" y="558" width="14" height="63" fill="#2AE0FF"/>
  <rect x="548" y="511" width="122" height="14" rx="7" fill="#2AE0FF"/>
  <rect x="600" y="466" width="18" height="82" rx="9" fill="#2AE0FF"/>
  <circle cx="609" cy="454" r="16" fill="#FDF067"/>
  <rect x="146" y="499" width="176" height="88" rx="24" stroke="#1E3557" stroke-width="2"/>
  <circle cx="218" cy="543" r="22" fill="#FDF067"/>
  <circle cx="259" cy="543" r="22" fill="#F17474"/>
  <circle cx="300" cy="543" r="22" fill="#2AE0FF"/>
  <path d="M0 697H1200" stroke="#1C3356" stroke-width="2"/>
</svg>
